<?xml version="1.0" encoding="utf-8"?>
<!-- Generator: Adobe Illustrator 23.0.2, SVG Export Plug-In . SVG Version: 6.00 Build 0)  -->
<svg version="1.1" id="arrow" xmlns="http://www.w3.org/2000/svg" xmlns:xlink="http://www.w3.org/1999/xlink" x="0px" y="0px"
	 viewBox="0 0 24 14" style="enable-background:new 0 0 24 14;" xml:space="preserve">
<style type="text/css">
	.st0{fill:#FFFFFF;}
</style>
<path class="st0" d="M0,7c0,0.6,0.4,1,1,1h19.6l-4.3,4.3c-0.4,0.4-0.4,1,0,1.4c0.4,0.4,1,0.4,1.4,0l6-6C23.9,7.5,24,7.3,24,7v0
	c0-0.1,0-0.3-0.1-0.4c0-0.1-0.1-0.2-0.2-0.3l-6-6c-0.4-0.4-1-0.4-1.4,0c-0.4,0.4-0.4,1,0,1.4L20.6,6H1C0.4,6,0,6.4,0,7z"/>
</svg>
