<?xml version="1.0" encoding="utf-8"?>
<!-- Generator: Adobe Illustrator 23.0.2, SVG Export Plug-In . SVG Version: 6.00 Build 0)  -->
<svg version="1.1" id="arrow" xmlns="http://www.w3.org/2000/svg" xmlns:xlink="http://www.w3.org/1999/xlink" x="0px" y="0px"
	 viewBox="0 0 101.4 101.4" style="enable-background:new 0 0 101.4 101.4;" xml:space="preserve">
<style type="text/css">
	.st0{fill:#B2B1B1;}
</style>
<path class="st0" d="M50.7,0C22.7,0,0,22.7,0,50.7s22.7,50.7,50.7,50.7s50.7-22.7,50.7-50.7S78.7,0,50.7,0z M50.7,96.6
	C25.4,96.6,4.8,76,4.8,50.7S25.4,4.8,50.7,4.8s45.9,20.6,45.9,45.9S76,96.6,50.7,96.6z"/>
<path class="st0" d="M74.8,48.3H32.4l15.2-15.2c0.9-0.9,0.9-2.5,0-3.4s-2.5-0.9-3.4,0L24.8,49c-0.2,0.2-0.4,0.5-0.5,0.8
	c-0.2,0.6-0.2,1.3,0,1.8c0.1,0.3,0.3,0.6,0.5,0.8l19.4,19.3c0.5,0.5,1.1,0.7,1.7,0.7s1.2-0.2,1.7-0.7c0.9-0.9,0.9-2.5,0-3.4
	L32.4,53.1h42.5c1.3,0,2.4-1.1,2.4-2.4S76.2,48.3,74.8,48.3z"/>
</svg>
