<?xml version="1.0" encoding="utf-8"?>
<!-- Generator: Adobe Illustrator 23.0.2, SVG Export Plug-In . SVG Version: 6.00 Build 0)  -->
<svg version="1.1" id="arrow" xmlns="http://www.w3.org/2000/svg" xmlns:xlink="http://www.w3.org/1999/xlink" x="0px" y="0px"
	 viewBox="0 0 101.4 101.4" style="enable-background:new 0 0 101.4 101.4;" xml:space="preserve">
<style type="text/css">
	.st0{fill:#B2B1B1;}
</style>
<path class="st0" d="M0,50.7c0,28,22.7,50.7,50.7,50.7s50.7-22.7,50.7-50.7S78.7,0,50.7,0S0,22.7,0,50.7z M4.8,50.7
	c0-25.3,20.6-45.9,45.9-45.9s45.9,20.6,45.9,45.9S76,96.6,50.7,96.6S4.8,76,4.8,50.7z"/>
<path class="st0" d="M24.1,50.7c0,1.3,1.1,2.4,2.4,2.4H69L53.8,68.3c-0.9,0.9-0.9,2.5,0,3.4c0.5,0.5,1.1,0.7,1.7,0.7
	s1.2-0.2,1.7-0.7l19.4-19.3c0.2-0.2,0.4-0.5,0.5-0.8c0.2-0.5,0.2-1.2,0-1.8c-0.1-0.3-0.3-0.6-0.5-0.8L57.2,29.7
	c-0.9-0.9-2.5-0.9-3.4,0s-0.9,2.5,0,3.4L69,48.3H26.6C25.2,48.3,24.1,49.4,24.1,50.7z"/>
</svg>
